# xmcd CD database file
#
# Track frame offsets:
#	150
#	23394
#	43498
#	57438
#	73883
#	92060
#	111903
#	130634
#	146824
#	166036
#	182962
#	201506
#	219000
#	232009
#	250434
#	268377
#	285968
#	305235
#	321441
#	336043
#
# Disc length: 4650 seconds
#
# Revision: 0
# Processed by: cddbd v1.5.2PL0 Copyright (c) Steve Scherf et al.
# Submitted via: CDex 1.70beta2
#
DISCID=3d122814
DTITLE=Erick Franchesky - 40 Años 40 Exitos
DYEAR=2006
DGENRE=Salsa
TTITLE0=Fantasia herida
TTITLE1=Yo soy tu Guapo
TTITLE2=Que Sabes tu
TTITLE3=Arriba
TTITLE4=Quiero Olvidarte y no puedo 
TTITLE5=La Cantaleta
TTITLE6=Aguardiente de Caña
TTITLE7=El Ultimo en tu Vida
TTITLE8=Dame ese Placer
TTITLE9=Aquel Cantor
TTITLE10=Amor Timido
TTITLE11=Dime Como Llego a Ti
TTITLE12=Echame la culpa a Mi
TTITLE13=El que mas te ha Querido
TTITLE14=Amnesia
TTITLE15=Tu Recuerdo
TTITLE16=Dile
TTITLE17=Si ella supiera
TTITLE18=Aguanta Corazon
TTITLE19=La Guitarra
EXTD=YEAR: 2006
EXTT0=
EXTT1=
EXTT2=
EXTT3=
EXTT4=
EXTT5=
EXTT6=
EXTT7=
EXTT8=
EXTT9=
EXTT10=
EXTT11=
EXTT12=
EXTT13=
EXTT14=
EXTT15=
EXTT16=
EXTT17=
EXTT18=
EXTT19=
PLAYORDER=
